<?xml version="1.0" standalone="no"?>
<!DOCTYPE svg PUBLIC "-//W3C//DTD SVG 20010904//EN"
 "http://www.w3.org/TR/2001/REC-SVG-20010904/DTD/svg10.dtd">
<svg version="1.0" xmlns="http://www.w3.org/2000/svg"
 width="200.000000pt" height="200.000000pt" viewBox="0 0 200.000000 200.000000"
 preserveAspectRatio="xMidYMid meet">

<g transform="translate(0.000000,200.000000) scale(0.100000,-0.100000)"
fill="#000000" stroke="none">
<path d="M845 1865 c-79 -14 -98 -18 -185 -50 -178 -65 -361 -233 -449 -413
-114 -230 -122 -516 -21 -737 107 -233 301 -401 557 -481 78 -24 104 -28 228
-28 187 -1 297 29 458 126 192 115 327 303 388 537 35 136 22 363 -29 491 -86
220 -229 377 -435 479 -92 46 -155 64 -270 80 -96 13 -139 13 -242 -4z m184
-281 c40 -33 40 -66 1 -106 -28 -28 -30 -34 -30 -108 l0 -79 47 -7 c109 -16
234 -98 286 -187 67 -115 88 -245 46 -283 -20 -18 -41 -19 -401 -19 l-380 0
-19 24 c-23 28 -24 73 -3 155 41 160 166 276 334 310 l55 11 3 73 c3 70 2 74
-28 102 -22 20 -30 37 -30 62 0 38 7 50 35 66 31 18 51 14 84 -14z m-301 -75
c-16 -4 -31 -9 -34 -11 -2 -3 21 -25 51 -49 l56 -44 -38 -5 c-35 -5 -36 -6
-19 -23 34 -33 11 -26 -26 9 -31 28 -34 34 -18 34 30 0 25 11 -27 57 l-48 42
43 1 c47 0 50 4 25 33 -11 12 -2 9 23 -9 l41 -29 -29 -6z m539 40 c-30 -17
-18 -29 29 -29 l46 0 -58 -47 c-54 -45 -56 -48 -31 -51 24 -3 25 -4 8 -20 -25
-25 -60 -50 -43 -32 19 22 15 29 -23 32 l-36 3 56 43 c59 46 62 62 13 62 l-31
0 39 29 c21 15 41 26 44 24 3 -3 -3 -9 -13 -14z m-728 -556 c-5 -21 -12 -50
-15 -65 -4 -16 -11 -28 -17 -28 -22 0 -47 34 -47 63 0 39 26 67 60 67 27 0 28
-1 19 -37z m944 25 c28 -22 32 -73 8 -97 -34 -34 -46 -26 -62 44 l-15 65 26 0
c14 0 34 -6 43 -12z"/>
</g>
</svg>
